<svg width="212" height="61" viewBox="0 0 212 61" fill="none" xmlns="http://www.w3.org/2000/svg">
<g clip-path="url(#clip0_162_4679)">
<path d="M45.3759 11.4168C45.3561 11.2904 45.2948 11.1742 45.2016 11.0869C45.1084 10.9996 44.9888 10.9462 44.8618 10.9353L40.4715 10.8515C40.4715 10.8515 36.9981 7.43894 36.63 7.09001C36.4427 6.96516 36.2292 6.88568 36.0062 6.85783C35.7832 6.82998 35.5568 6.85451 35.3448 6.9295L33.5873 7.47384C33.374 6.75071 33.0926 6.04967 32.7468 5.38022C31.5033 2.9935 29.6833 1.73035 27.4742 1.73035H27.0227C26.8699 1.73035 26.8907 1.56984 26.8212 1.50005C26.3582 0.993205 25.7891 0.595765 25.1549 0.336324C24.5207 0.0768832 23.8371 -0.0381089 23.1534 -0.000378571C20.3122 0.0833661 17.4779 2.14907 15.1785 5.8129C13.587 8.35346 12.5039 11.1815 11.99 14.1385L6.38402 15.8832C4.73765 16.4066 4.68208 16.4555 4.46673 18.0187C4.30001 19.2539 0 52.7518 0 52.7518L36.1229 59.0327L51.7877 55.1316C51.7877 55.1316 45.4175 11.7099 45.3759 11.4168ZM31.7742 8.03911L28.9955 8.91146C29.0052 7.14178 28.7138 5.38345 28.1341 3.7123C30.2668 4.12405 31.3296 6.57358 31.7742 8.03911ZM27.0921 9.48371L21.0555 11.361C21.5925 9.16782 22.6374 7.13301 24.1051 5.42209C24.679 4.78657 25.3764 4.27593 26.1543 3.92167C26.8492 5.6898 27.1687 7.58431 27.0921 9.48371ZM23.2159 1.94669C23.8196 1.91774 24.4179 2.07347 24.9317 2.39332C24.1035 2.84091 23.3566 3.42608 22.7227 4.12405C20.7932 6.36783 19.5 9.09161 18.9784 12.01L14.0184 13.5523C14.984 8.97426 18.8117 2.09324 23.202 1.96064L23.2159 1.94669Z" fill="#95BF46"/>
<path d="M44.8618 10.9357L40.4715 10.8519C40.4715 10.8519 36.9981 7.43932 36.6299 7.09038C36.4933 6.96942 36.3241 6.89173 36.1437 6.86707V59.0331L51.8085 55.1319C51.8085 55.1319 45.4175 11.7033 45.3758 11.4102C45.3559 11.2845 45.2942 11.1693 45.2009 11.0832C45.1076 10.997 44.9881 10.9451 44.8618 10.9357Z" fill="#5F8E3E"/>
<path d="M27.4534 19.031L25.6334 25.8701C24.2277 25.3003 22.7152 25.0455 21.2014 25.1234C17.6724 25.3537 17.6308 27.5869 17.6655 28.1452C17.86 31.2089 25.8695 31.8718 26.3211 39.039C26.6754 44.6778 23.3479 48.5301 18.5477 48.8092C16.9328 48.9614 15.304 48.7731 13.7656 48.2563C12.2273 47.7396 10.8133 46.9058 9.61426 45.8084L10.8369 40.5953C10.8369 40.5953 14.0254 43.0099 16.5818 42.8494C16.8774 42.8439 17.169 42.78 17.44 42.6613C17.711 42.5427 17.9561 42.3715 18.1612 42.1576C18.3664 41.9438 18.5275 41.6914 18.6356 41.4149C18.7436 41.1385 18.7964 40.8433 18.7909 40.5464V40.4208C18.5408 36.429 12.0178 36.6593 11.608 30.1062C11.2606 24.5861 14.866 18.9961 22.8269 18.4936C25.8834 18.2424 27.4534 19.031 27.4534 19.031Z" fill="white"/>
<path d="M73.0445 33.6235C71.2245 32.6325 70.2659 31.8021 70.2659 30.6506C70.2659 29.192 71.558 28.2569 73.5864 28.2569C75.1227 28.2948 76.6372 28.6313 78.0462 29.2478L79.7064 24.1324C79.7064 24.1324 78.1851 22.9391 73.6906 22.9391C67.4386 22.9391 63.1038 26.5331 63.1038 31.5927C63.1038 34.4609 65.1253 36.6453 67.8276 38.2085C70.0019 39.4647 70.7799 40.351 70.7799 41.656C70.7799 42.961 69.6962 44.1055 67.6678 44.1055C65.6322 44.0282 63.6381 43.5042 61.8256 42.5702L60.0612 47.6787C62.2078 48.9077 64.6492 49.5208 67.119 49.4513C73.5517 49.4513 78.1712 46.269 78.1712 40.5324C78.1782 37.399 75.8441 35.2426 73.0445 33.6235ZM98.6779 22.8832C97.212 22.9029 95.7696 23.2552 94.4584 23.9138C93.1472 24.5725 92.0011 25.5204 91.106 26.6866L91.0018 26.6378L93.7805 12.1988H86.5906L79.6439 48.9488H86.8338L89.2234 36.3871C90.1612 31.6415 92.5995 28.7105 94.878 28.7105C96.4897 28.7105 97.1149 29.8061 97.1149 31.3694C97.1151 32.4379 97.0104 33.5038 96.8023 34.5517L94.1 48.9348H101.262L104.041 34.0771C104.347 32.5319 104.519 30.9627 104.555 29.3874C104.541 25.3328 102.415 22.8832 98.6779 22.8832ZM120.734 22.8832C112.12 22.8832 106.41 30.7064 106.41 39.4089C106.41 44.9918 109.834 49.4722 116.274 49.4722C124.735 49.4722 130.438 41.8584 130.438 32.9466C130.438 27.7823 127.43 22.8832 120.734 22.8832ZM117.205 43.966C114.766 43.966 113.731 41.8724 113.731 39.2763C113.731 35.1588 115.857 28.4313 119.747 28.4313C122.29 28.4313 123.123 30.6226 123.123 32.7581C123.123 37.1687 120.998 43.966 117.205 43.966ZM148.764 22.8832C143.901 22.8832 141.185 27.1612 141.185 27.1612H141.081L141.497 23.302H135.162C134.849 25.905 134.28 29.8689 133.71 32.8419L128.729 59.1726H135.891L137.864 48.565H138.017C139.302 49.235 140.738 49.5573 142.185 49.5001C150.598 49.5001 156.078 40.8465 156.078 32.0533C156.127 27.217 154.001 22.8832 148.764 22.8832ZM141.907 44.0497C140.821 44.0636 139.766 43.6846 138.934 42.982L140.122 36.2894C140.956 31.809 143.29 28.8361 145.783 28.8361C147.965 28.8012 148.659 30.832 148.659 32.8C148.659 37.399 145.881 44.0497 141.907 44.0497ZM166.353 12.5617C165.816 12.5599 165.285 12.6642 164.788 12.8687C164.292 13.0732 163.841 13.374 163.46 13.7537C163.08 14.1335 162.777 14.5848 162.57 15.082C162.363 15.5791 162.256 16.1124 162.254 16.6512V16.7489C162.254 18.8844 163.602 20.343 165.63 20.343H165.734C166.802 20.3751 167.838 19.9825 168.619 19.2506C169.399 18.5187 169.861 17.5067 169.902 16.4349V16.1557C169.95 15.2565 169.643 14.3747 169.047 13.7018C168.451 13.0289 167.615 12.6192 166.721 12.5617C166.598 12.5545 166.475 12.5545 166.353 12.5617ZM156.336 48.9558H163.498L168.381 23.4555H161.163L156.336 48.9558ZM186.595 23.4415H181.615L181.872 22.2412C182.288 19.7917 183.74 17.6003 186.13 17.6003C186.904 17.6021 187.672 17.7245 188.408 17.9632L189.798 12.3384C188.56 11.8555 187.234 11.6414 185.908 11.7103C183.361 11.643 180.874 12.4947 178.898 14.111C176.46 16.2046 175.321 19.2194 174.73 22.2412L174.529 23.4415H171.201L170.194 28.8291H173.515L169.729 48.9488H176.891L180.677 28.8291H185.609L186.595 23.4415ZM203.823 23.4415C203.823 23.4415 199.35 34.775 197.335 40.9581H197.231C197.099 38.9692 195.466 23.4415 195.466 23.4415H187.943L192.25 46.8552C192.309 47.0538 192.325 47.2626 192.299 47.4681C192.273 47.6736 192.204 47.8713 192.097 48.0485C191.162 49.7853 189.825 51.2714 188.2 52.3823C186.96 53.2612 185.597 53.9525 184.157 54.4341L186.13 60.5335C188.747 59.8243 191.148 58.4743 193.118 56.6044C196.39 53.5268 199.37 48.7813 202.51 42.319L211.284 23.4764L203.823 23.4415Z" fill="black"/>
</g>
<defs>
<clipPath id="clip0_162_4679">
<rect width="211.298" height="60.5125" fill="white"/>
</clipPath>
</defs>
</svg>
