<svg width="218" height="32" viewBox="0 0 218 32" fill="none" xmlns="http://www.w3.org/2000/svg">
<path d="M3.43486 24.098H-6.10352e-05V30.5774H3.43486V24.098Z" fill="#47CC8A"/>
<path d="M6.87004 24.098H3.43512V30.5774H6.87004V24.098Z" fill="#81FC93"/>
<path d="M14.284 18.6843H10.8491V30.6523H14.284V18.6843Z" fill="#47CC8A"/>
<path d="M18.8599 18.6843H14.2837V30.6523H18.8599V18.6843Z" fill="#81FC93"/>
<path d="M26.2615 13H22.8265V30.6541H26.2615V13Z" fill="#47CC8A"/>
<path d="M30.84 13H26.2637V30.6541H30.84V13Z" fill="#81FC93"/>
<path d="M34.1758 6.11332V1.53857H41.726V6.11332H34.1758ZM34.3031 30.7852V8.79444H41.5987V30.7852H34.3031Z" fill="#0C0C0C"/>
<path d="M51.267 23.7045C51.436 25.5071 52.878 26.9592 55.593 26.9592C57.9678 26.9592 58.9006 26.1672 58.9006 24.8926C58.9006 23.7933 58.5187 22.8692 56.0583 22.562L51.5633 22.0339C47.4502 21.5492 45.2443 19.2641 45.2443 15.4381C45.2443 10.2056 49.5704 8.09344 55.2528 8.09344C60.9353 8.09344 65.1779 10.1601 65.6015 15.3061H58.9862C58.7733 13.59 57.6298 12.5794 55.2967 12.5794C52.8363 12.5794 51.9035 13.5035 51.9035 14.7348C51.9035 15.6589 52.4127 16.4942 54.4056 16.7149L58.7733 17.1542C63.7776 17.6822 65.8561 19.7921 65.8561 24.0141C65.8561 28.236 63.354 31.4907 55.4657 31.4907C47.5775 31.4907 44.8207 27.7535 44.6517 23.7068H51.267V23.7045Z" fill="#0C0C0C"/>
<path d="M80.1508 8.09344C87.8283 8.09344 91.5596 12.5794 91.7286 18.076H84.5602C84.3473 15.4813 83.0765 13.986 80.2342 13.986C77.1812 13.986 75.4407 15.3926 75.4407 19.7921C75.4407 24.1916 77.0956 25.5981 80.1069 25.5981C83.1182 25.5981 84.3912 23.8821 84.6458 21.4649H91.8142C91.6452 26.6975 88.1247 31.493 80.2364 31.493C71.457 31.493 68.1494 25.7324 68.1494 19.7943C68.1494 13.8563 71.3736 8.09572 80.1508 8.09572V8.09344Z" fill="#0C0C0C"/>
<path d="M94.1894 24.9814C94.1894 21.4627 95.5898 19.132 101.441 18.1215L106.235 17.243C108.186 16.8902 108.695 16.3644 108.695 15.2196C108.695 13.8995 107.931 13.1098 105.515 13.1098C102.971 13.1098 101.74 14.1658 101.698 16.1004H94.6152C94.8281 11.4392 98.7284 8.09573 105.429 8.09573C112.13 8.09573 115.438 10.9544 115.438 15.9684V24.7196C115.438 27.0502 115.565 28.9848 115.82 30.7897H109.542C109.329 29.5151 109.202 28.0198 109.202 26.215C108.142 29.4264 105.513 31.361 101.228 31.361C96.944 31.361 94.1873 28.8551 94.1873 24.9836L94.1894 24.9814ZM108.693 20.4498V19.6146C107.675 20.4066 106.7 20.6706 105.385 21.0211L104.156 21.3284C102.122 21.8564 101.358 22.6029 101.358 24.0983C101.358 25.5936 102.503 26.4289 103.987 26.4289C106.744 26.4289 108.695 24.4055 108.695 20.4476L108.693 20.4498Z" fill="#0C0C0C"/>
<path d="M119.425 30.7852V0H126.721V30.7852H119.425Z" fill="#0C0C0C"/>
<path d="M130.409 24.9814C130.409 21.4627 131.809 19.132 137.66 18.1215L142.454 17.243C144.405 16.8902 144.914 16.3644 144.914 15.2196C144.914 13.8995 144.15 13.1098 141.734 13.1098C139.19 13.1098 137.959 14.1658 137.917 16.1004H130.834C131.047 11.4392 134.948 8.09573 141.648 8.09573C148.349 8.09573 151.657 10.9544 151.657 15.9684V24.7196C151.657 27.0502 151.784 28.9848 152.039 30.7897H145.761C145.549 29.5151 145.421 28.0198 145.421 26.215C144.361 29.4264 141.732 31.361 137.447 31.361C133.163 31.361 130.406 28.8551 130.406 24.9836L130.409 24.9814ZM144.914 20.4498V19.6146C143.896 20.4066 142.921 20.6706 141.607 21.0211L140.378 21.3284C138.343 21.8564 137.579 22.6029 137.579 24.0983C137.579 25.5936 138.725 26.4289 140.209 26.4289C142.965 26.4289 144.916 24.4055 144.916 20.4476L144.914 20.4498Z" fill="#0C0C0C"/>
<path d="M180.369 19.7466C180.369 26.0352 177.613 31.4884 170.657 31.4884C167.053 31.4884 164.635 30.1251 163.193 27.7513V30.7852H155.897V0H163.193V11.8306C164.635 9.50002 167.051 8.09345 170.657 8.09345C177.613 8.09345 180.369 13.6355 180.369 19.7488V19.7466ZM173.076 19.7898C173.076 15.6998 171.803 13.9837 168.199 13.9837C164.595 13.9837 163.195 15.8751 163.195 19.7898C163.195 23.7045 164.468 25.5959 168.199 25.5959C171.93 25.5959 173.076 23.8798 173.076 19.7898Z" fill="#0C0C0C"/>
<path d="M183.469 30.7852V0H190.765V30.7852H183.469Z" fill="#0C0C0C"/>
<path d="M209.89 24.1438H216.973C216.253 27.9265 213.369 31.4884 205.65 31.4884C196.998 31.4884 193.945 25.7711 193.945 19.7466C193.945 13.3692 197.507 8.09117 205.65 8.09117C214.302 8.09117 217.059 13.7652 217.059 19.8786C217.059 20.5819 217.017 21.2419 216.931 21.7267H201.028C201.451 25.2454 203.106 26.4335 205.821 26.4335C207.985 26.4335 209.3 25.4662 209.893 24.1461L209.89 24.1438ZM201.111 17.3272H210.145C209.89 14.5573 208.576 13.062 205.733 13.062C203.104 13.062 201.576 14.1613 201.111 17.3272Z" fill="#0C0C0C"/>
</svg>
